<svg xmlns="http://www.w3.org/2000/svg" xmlns:xlink="http://www.w3.org/1999/xlink" width="500" zoomAndPan="magnify" viewBox="0 0 375 374.999991" height="500" preserveAspectRatio="xMidYMid meet" version="1.0"><defs><g/><clipPath id="66b1f7ae19"><path d="M 177 65 L 260 65 L 260 252 L 177 252 Z M 177 65 " clip-rule="nonzero"/></clipPath><clipPath id="b8cfa488d2"><path d="M 124.808594 130.429688 L 251.933594 52.234375 L 327.378906 174.886719 L 200.253906 253.082031 Z M 124.808594 130.429688 " clip-rule="nonzero"/></clipPath><clipPath id="e5a999e359"><path d="M 124.808594 130.429688 L 251.933594 52.234375 L 327.378906 174.886719 L 200.253906 253.082031 Z M 124.808594 130.429688 " clip-rule="nonzero"/></clipPath><clipPath id="91420f19c5"><path d="M 124.808594 130.429688 L 251.933594 52.234375 L 327.378906 174.886719 L 200.253906 253.082031 Z M 124.808594 130.429688 " clip-rule="nonzero"/></clipPath><clipPath id="b88b758b0d"><path d="M 79 67 L 220 67 L 220 239 L 79 239 Z M 79 67 " clip-rule="nonzero"/></clipPath><clipPath id="653f4a9094"><path d="M 117.285156 67.378906 L 219.464844 94.621094 L 181.214844 238.109375 L 79.03125 210.867188 Z M 117.285156 67.378906 " clip-rule="nonzero"/></clipPath><clipPath id="9da146e392"><path d="M 29 13 L 116 13 L 116 170 L 29 170 Z M 29 13 " clip-rule="nonzero"/></clipPath><clipPath id="efe4c58569"><path d="M 38.285156 0.378906 L 140.464844 27.621094 L 102.214844 171.109375 L 0.03125 143.867188 Z M 38.285156 0.378906 " clip-rule="nonzero"/></clipPath><clipPath id="329acf7d39"><path d="M 140.214844 27.554688 L 38.035156 0.3125 L -0.21875 143.800781 L 101.964844 171.042969 Z M 140.214844 27.554688 " clip-rule="nonzero"/></clipPath><clipPath id="0ce019cc52"><path d="M 140.214844 27.554688 L 38.035156 0.3125 L -0.21875 143.800781 L 101.964844 171.042969 Z M 140.214844 27.554688 " clip-rule="nonzero"/></clipPath><clipPath id="f8736f6a5d"><rect x="0" width="141" y="0" height="172"/></clipPath></defs><g fill="#000000" fill-opacity="1"><g transform="translate(81.703605, 291.632794)"><g><path d="M 2.640625 -36.421875 L 13.953125 -36.421875 C 17.359375 -36.421875 20.078125 -35.691406 22.109375 -34.234375 C 24.140625 -32.773438 25.15625 -30.410156 25.15625 -27.140625 C 25.15625 -23.492188 23.640625 -20.890625 20.609375 -19.328125 C 25.785156 -18.421875 28.375 -15.363281 28.375 -10.15625 C 28.375 -7.09375 27.316406 -4.632812 25.203125 -2.78125 C 23.085938 -0.925781 20.175781 0 16.46875 0 L 2.640625 0 Z M 10.953125 -22.15625 L 11.609375 -22.15625 C 13.460938 -22.15625 14.84375 -22.476562 15.75 -23.125 C 16.664062 -23.769531 17.125 -24.832031 17.125 -26.3125 C 17.125 -28.78125 15.285156 -30.015625 11.609375 -30.015625 L 10.953125 -30.015625 Z M 10.953125 -6.40625 L 13.546875 -6.40625 C 17.609375 -6.40625 19.640625 -7.757812 19.640625 -10.46875 C 19.640625 -12.082031 19.128906 -13.238281 18.109375 -13.9375 C 17.097656 -14.644531 15.578125 -15 13.546875 -15 L 10.953125 -15 Z M 10.953125 -6.40625 "/></g></g></g><g fill="#000000" fill-opacity="1"><g transform="translate(116.976113, 291.632794)"><g><path d="M 21.140625 -36.421875 L 35.84375 0 L 26.921875 0 L 24.234375 -7.28125 L 10.375 -7.28125 L 7.6875 0 L -1.234375 0 L 13.46875 -36.421875 Z M 21.40625 -14.5625 L 17.34375 -25.15625 L 17.265625 -25.15625 L 13.203125 -14.5625 Z M 21.40625 -14.5625 "/></g></g></g><g fill="#000000" fill-opacity="1"><g transform="translate(157.457674, 291.632794)"><g><path d="M 2.640625 -36.421875 L 15.671875 -36.421875 C 19.171875 -36.421875 22.023438 -35.484375 24.234375 -33.609375 C 26.441406 -31.742188 27.546875 -29.070312 27.546875 -25.59375 C 27.546875 -22.914062 26.875 -20.671875 25.53125 -18.859375 C 24.195312 -17.054688 22.378906 -15.785156 20.078125 -15.046875 L 32.625 0 L 22.0625 0 L 10.953125 -14.390625 L 10.953125 0 L 2.640625 0 Z M 10.953125 -20.265625 L 11.921875 -20.265625 C 12.679688 -20.265625 13.328125 -20.273438 13.859375 -20.296875 C 14.390625 -20.328125 14.992188 -20.429688 15.671875 -20.609375 C 16.347656 -20.785156 16.890625 -21.035156 17.296875 -21.359375 C 17.710938 -21.679688 18.066406 -22.148438 18.359375 -22.765625 C 18.648438 -23.390625 18.796875 -24.144531 18.796875 -25.03125 C 18.796875 -25.914062 18.648438 -26.664062 18.359375 -27.28125 C 18.066406 -27.894531 17.710938 -28.363281 17.296875 -28.6875 C 16.890625 -29.007812 16.347656 -29.257812 15.671875 -29.4375 C 14.992188 -29.613281 14.390625 -29.71875 13.859375 -29.75 C 13.328125 -29.78125 12.679688 -29.796875 11.921875 -29.796875 L 10.953125 -29.796875 Z M 10.953125 -20.265625 "/></g></g></g><g fill="#000000" fill-opacity="1"><g transform="translate(194.937404, 291.632794)"><g><path d="M 2.640625 -36.421875 L 13.953125 -36.421875 C 17.359375 -36.421875 20.078125 -35.691406 22.109375 -34.234375 C 24.140625 -32.773438 25.15625 -30.410156 25.15625 -27.140625 C 25.15625 -23.492188 23.640625 -20.890625 20.609375 -19.328125 C 25.785156 -18.421875 28.375 -15.363281 28.375 -10.15625 C 28.375 -7.09375 27.316406 -4.632812 25.203125 -2.78125 C 23.085938 -0.925781 20.175781 0 16.46875 0 L 2.640625 0 Z M 10.953125 -22.15625 L 11.609375 -22.15625 C 13.460938 -22.15625 14.84375 -22.476562 15.75 -23.125 C 16.664062 -23.769531 17.125 -24.832031 17.125 -26.3125 C 17.125 -28.78125 15.285156 -30.015625 11.609375 -30.015625 L 10.953125 -30.015625 Z M 10.953125 -6.40625 L 13.546875 -6.40625 C 17.609375 -6.40625 19.640625 -7.757812 19.640625 -10.46875 C 19.640625 -12.082031 19.128906 -13.238281 18.109375 -13.9375 C 17.097656 -14.644531 15.578125 -15 13.546875 -15 L 10.953125 -15 Z M 10.953125 -6.40625 "/></g></g></g><g fill="#000000" fill-opacity="1"><g transform="translate(230.209912, 291.632794)"><g><path d="M 23.484375 -36.421875 L 23.484375 -29.125 L 10.953125 -29.125 L 10.953125 -21.890625 L 22.953125 -21.890625 L 22.953125 -14.609375 L 10.953125 -14.609375 L 10.953125 -7.28125 L 23.484375 -7.28125 L 23.484375 0 L 2.640625 0 L 2.640625 -36.421875 Z M 23.484375 -36.421875 "/></g></g></g><g fill="#000000" fill-opacity="1"><g transform="translate(261.685992, 291.632794)"><g><path d="M 2.640625 -36.421875 L 15.671875 -36.421875 C 19.171875 -36.421875 22.023438 -35.484375 24.234375 -33.609375 C 26.441406 -31.742188 27.546875 -29.070312 27.546875 -25.59375 C 27.546875 -22.914062 26.875 -20.671875 25.53125 -18.859375 C 24.195312 -17.054688 22.378906 -15.785156 20.078125 -15.046875 L 32.625 0 L 22.0625 0 L 10.953125 -14.390625 L 10.953125 0 L 2.640625 0 Z M 10.953125 -20.265625 L 11.921875 -20.265625 C 12.679688 -20.265625 13.328125 -20.273438 13.859375 -20.296875 C 14.390625 -20.328125 14.992188 -20.429688 15.671875 -20.609375 C 16.347656 -20.785156 16.890625 -21.035156 17.296875 -21.359375 C 17.710938 -21.679688 18.066406 -22.148438 18.359375 -22.765625 C 18.648438 -23.390625 18.796875 -24.144531 18.796875 -25.03125 C 18.796875 -25.914062 18.648438 -26.664062 18.359375 -27.28125 C 18.066406 -27.894531 17.710938 -28.363281 17.296875 -28.6875 C 16.890625 -29.007812 16.347656 -29.257812 15.671875 -29.4375 C 14.992188 -29.613281 14.390625 -29.71875 13.859375 -29.75 C 13.328125 -29.78125 12.679688 -29.796875 11.921875 -29.796875 L 10.953125 -29.796875 Z M 10.953125 -20.265625 "/></g></g></g><g fill="#000000" fill-opacity="1"><g transform="translate(136.83614, 313.089764)"><g><path d="M 6.015625 -15.96875 L 8.828125 -2.96875 L 16.15625 -15.96875 L 18.859375 -15.96875 L 16.078125 0 L 14.03125 0 L 15.125 -6.3125 L 16.4375 -12.75 L 9.1875 0 L 7.609375 0 L 4.765625 -13 L 3.78125 -6.109375 L 2.703125 0 L 0.640625 0 L 3.421875 -15.96875 Z M 6.015625 -15.96875 "/></g></g></g><g fill="#000000" fill-opacity="1"><g transform="translate(158.405036, 313.089764)"><g><path d="M 7.609375 0 C 7.554688 -0.207031 7.53125 -0.414062 7.53125 -0.625 L 7.5625 -1.25 C 6.46875 -0.238281 5.3125 0.25 4.09375 0.21875 C 3.039062 0.207031 2.1875 -0.117188 1.53125 -0.765625 C 0.882812 -1.421875 0.585938 -2.234375 0.640625 -3.203125 C 0.710938 -4.460938 1.265625 -5.441406 2.296875 -6.140625 C 3.328125 -6.847656 4.679688 -7.203125 6.359375 -7.203125 L 8.421875 -7.203125 L 8.5625 -8.140625 C 8.632812 -8.847656 8.492188 -9.40625 8.140625 -9.8125 C 7.796875 -10.226562 7.273438 -10.445312 6.578125 -10.46875 C 5.898438 -10.476562 5.300781 -10.3125 4.78125 -9.96875 C 4.257812 -9.625 3.9375 -9.164062 3.8125 -8.59375 L 1.828125 -8.578125 C 1.890625 -9.273438 2.15625 -9.890625 2.625 -10.421875 C 3.101562 -10.960938 3.710938 -11.378906 4.453125 -11.671875 C 5.203125 -11.972656 5.976562 -12.113281 6.78125 -12.09375 C 8.019531 -12.070312 8.984375 -11.695312 9.671875 -10.96875 C 10.359375 -10.25 10.644531 -9.296875 10.53125 -8.109375 L 9.5625 -2.234375 L 9.515625 -1.375 C 9.492188 -0.976562 9.535156 -0.582031 9.640625 -0.1875 L 9.625 0 Z M 4.484375 -1.53125 C 5.117188 -1.519531 5.71875 -1.671875 6.28125 -1.984375 C 6.851562 -2.304688 7.34375 -2.75 7.75 -3.3125 L 8.1875 -5.765625 L 6.6875 -5.765625 C 5.4375 -5.765625 4.476562 -5.566406 3.8125 -5.171875 C 3.144531 -4.773438 2.765625 -4.21875 2.671875 -3.5 C 2.609375 -2.945312 2.738281 -2.484375 3.0625 -2.109375 C 3.382812 -1.742188 3.859375 -1.550781 4.484375 -1.53125 Z M 4.484375 -1.53125 "/></g></g></g><g fill="#000000" fill-opacity="1"><g transform="translate(172.814806, 313.089764)"><g><path d="M 4.28125 -11.875 L 4 -10.375 C 5.0625 -11.550781 6.273438 -12.125 7.640625 -12.09375 C 8.753906 -12.0625 9.578125 -11.671875 10.109375 -10.921875 C 10.648438 -10.179688 10.847656 -9.132812 10.703125 -7.78125 L 9.40625 0 L 7.421875 0 L 8.734375 -7.8125 C 8.773438 -8.164062 8.78125 -8.5 8.75 -8.8125 C 8.625 -9.832031 8.019531 -10.351562 6.9375 -10.375 C 5.738281 -10.394531 4.691406 -9.757812 3.796875 -8.46875 L 2.328125 0 L 0.34375 0 L 2.40625 -11.875 Z M 4.28125 -11.875 "/></g></g></g><g fill="#000000" fill-opacity="1"><g transform="translate(187.389028, 313.089764)"><g><path d="M 7.609375 0 C 7.554688 -0.207031 7.53125 -0.414062 7.53125 -0.625 L 7.5625 -1.25 C 6.46875 -0.238281 5.3125 0.25 4.09375 0.21875 C 3.039062 0.207031 2.1875 -0.117188 1.53125 -0.765625 C 0.882812 -1.421875 0.585938 -2.234375 0.640625 -3.203125 C 0.710938 -4.460938 1.265625 -5.441406 2.296875 -6.140625 C 3.328125 -6.847656 4.679688 -7.203125 6.359375 -7.203125 L 8.421875 -7.203125 L 8.5625 -8.140625 C 8.632812 -8.847656 8.492188 -9.40625 8.140625 -9.8125 C 7.796875 -10.226562 7.273438 -10.445312 6.578125 -10.46875 C 5.898438 -10.476562 5.300781 -10.3125 4.78125 -9.96875 C 4.257812 -9.625 3.9375 -9.164062 3.8125 -8.59375 L 1.828125 -8.578125 C 1.890625 -9.273438 2.15625 -9.890625 2.625 -10.421875 C 3.101562 -10.960938 3.710938 -11.378906 4.453125 -11.671875 C 5.203125 -11.972656 5.976562 -12.113281 6.78125 -12.09375 C 8.019531 -12.070312 8.984375 -11.695312 9.671875 -10.96875 C 10.359375 -10.25 10.644531 -9.296875 10.53125 -8.109375 L 9.5625 -2.234375 L 9.515625 -1.375 C 9.492188 -0.976562 9.535156 -0.582031 9.640625 -0.1875 L 9.625 0 Z M 4.484375 -1.53125 C 5.117188 -1.519531 5.71875 -1.671875 6.28125 -1.984375 C 6.851562 -2.304688 7.34375 -2.75 7.75 -3.3125 L 8.1875 -5.765625 L 6.6875 -5.765625 C 5.4375 -5.765625 4.476562 -5.566406 3.8125 -5.171875 C 3.144531 -4.773438 2.765625 -4.21875 2.671875 -3.5 C 2.609375 -2.945312 2.738281 -2.484375 3.0625 -2.109375 C 3.382812 -1.742188 3.859375 -1.550781 4.484375 -1.53125 Z M 4.484375 -1.53125 "/></g></g></g><g fill="#000000" fill-opacity="1"><g transform="translate(201.798798, 313.089764)"><g><path d="M 0.921875 -5.953125 C 1.097656 -7.253906 1.445312 -8.378906 1.96875 -9.328125 C 2.488281 -10.285156 3.125 -10.992188 3.875 -11.453125 C 4.625 -11.910156 5.445312 -12.125 6.34375 -12.09375 C 7.71875 -12.070312 8.753906 -11.554688 9.453125 -10.546875 L 9.859375 -11.875 L 11.671875 -11.875 L 9.703125 -0.25 C 9.484375 1.257812 8.863281 2.46875 7.84375 3.375 C 6.832031 4.289062 5.582031 4.726562 4.09375 4.6875 C 3.289062 4.664062 2.519531 4.472656 1.78125 4.109375 C 1.050781 3.742188 0.472656 3.242188 0.046875 2.609375 L 1.171875 1.390625 C 1.890625 2.453125 2.835938 3 4.015625 3.03125 C 4.960938 3.0625 5.757812 2.796875 6.40625 2.234375 C 7.0625 1.679688 7.5 0.894531 7.71875 -0.125 L 7.9375 -1.1875 C 6.96875 -0.21875 5.835938 0.25 4.546875 0.21875 C 3.804688 0.195312 3.160156 0 2.609375 -0.375 C 2.066406 -0.75 1.644531 -1.289062 1.34375 -2 C 1.050781 -2.71875 0.890625 -3.519531 0.859375 -4.40625 C 0.835938 -4.832031 0.859375 -5.347656 0.921875 -5.953125 Z M 2.84375 -4.828125 C 2.820312 -3.785156 3 -2.972656 3.375 -2.390625 C 3.757812 -1.816406 4.34375 -1.515625 5.125 -1.484375 C 6.3125 -1.460938 7.332031 -2.046875 8.1875 -3.234375 L 9.109375 -8.6875 C 8.671875 -9.769531 7.878906 -10.332031 6.734375 -10.375 C 5.660156 -10.40625 4.773438 -9.96875 4.078125 -9.0625 C 3.390625 -8.15625 2.984375 -6.929688 2.859375 -5.390625 Z M 2.84375 -4.828125 "/></g></g></g><g fill="#000000" fill-opacity="1"><g transform="translate(216.581325, 313.089764)"><g><path d="M 5.46875 0.21875 C 4 0.1875 2.84375 -0.351562 2 -1.40625 C 1.164062 -2.46875 0.816406 -3.828125 0.953125 -5.484375 L 1.015625 -5.953125 C 1.140625 -7.128906 1.488281 -8.203125 2.0625 -9.171875 C 2.632812 -10.148438 3.332031 -10.882812 4.15625 -11.375 C 4.976562 -11.875 5.867188 -12.113281 6.828125 -12.09375 C 8.054688 -12.0625 9.015625 -11.65625 9.703125 -10.875 C 10.398438 -10.09375 10.78125 -9.03125 10.84375 -7.6875 C 10.875 -7.21875 10.863281 -6.742188 10.8125 -6.265625 L 10.6875 -5.359375 L 2.921875 -5.359375 C 2.796875 -4.273438 2.972656 -3.359375 3.453125 -2.609375 C 3.941406 -1.859375 4.671875 -1.46875 5.640625 -1.4375 C 6.804688 -1.40625 7.890625 -1.929688 8.890625 -3.015625 L 10.03125 -2.046875 C 9.53125 -1.328125 8.882812 -0.765625 8.09375 -0.359375 C 7.3125 0.0351562 6.4375 0.226562 5.46875 0.21875 Z M 6.734375 -10.4375 C 5.910156 -10.457031 5.191406 -10.175781 4.578125 -9.59375 C 3.972656 -9.019531 3.492188 -8.160156 3.140625 -7.015625 L 8.90625 -7.015625 L 8.953125 -7.1875 C 9.066406 -8.101562 8.914062 -8.867188 8.5 -9.484375 C 8.09375 -10.097656 7.503906 -10.414062 6.734375 -10.4375 Z M 6.734375 -10.4375 "/></g></g></g><g fill="#000000" fill-opacity="1"><g transform="translate(230.673155, 313.089764)"><g><path d="M 7.71875 -10.0625 L 6.796875 -10.15625 C 5.515625 -10.15625 4.507812 -9.582031 3.78125 -8.4375 L 2.328125 0 L 0.34375 0 L 2.40625 -11.875 L 4.328125 -11.875 L 4.03125 -10.5 C 4.863281 -11.601562 5.851562 -12.140625 7 -12.109375 C 7.238281 -12.109375 7.550781 -12.054688 7.9375 -11.953125 Z M 7.71875 -10.0625 "/></g></g></g><g clip-path="url(#66b1f7ae19)"><g clip-path="url(#b8cfa488d2)"><g clip-path="url(#e5a999e359)"><g clip-path="url(#91420f19c5)"><path fill="#000000" d="M 235.789062 201.652344 C 230.417969 192.347656 222.839844 192.355469 224.09375 178.925781 C 224.535156 171.972656 225.648438 162.816406 226.464844 156.640625 C 226.824219 153.96875 227.253906 151.527344 228.085938 148.941406 C 236 127.0625 246.292969 106.921875 254.871094 84.71875 C 255.710938 82.523438 261.589844 67.984375 258.3125 74 C 249.863281 90.304688 241.234375 106.585938 232.46875 122.75 C 231.742188 123.847656 230.988281 125.894531 229.949219 126.226562 C 229.667969 126.179688 229.53125 125.550781 229.503906 124.464844 C 229.46875 122.386719 229.648438 119.621094 229.726562 117.378906 C 230.363281 103.308594 231.558594 90.222656 232.574219 76.109375 C 232.800781 72.445312 233.464844 63.59375 232.699219 66.304688 C 230.308594 77.832031 228.457031 89.820312 226.75 101.582031 C 225.324219 111.25 224.429688 118.867188 223.128906 128.28125 C 222.261719 134.46875 221.375 141.128906 219.753906 146.96875 C 217.222656 154.878906 212.914062 162.207031 209.027344 170.265625 C 205.324219 178.046875 201.90625 182.761719 193.378906 184.082031 C 190.109375 184.742188 186.621094 185.273438 183.878906 187.132812 C 178.816406 190.4375 175.992188 197.378906 177.671875 203.421875 C 179.894531 213.65625 192.957031 217.695312 200.046875 209.691406 C 204.167969 205.261719 204.679688 199.367188 206.53125 193.605469 C 207.839844 189.464844 209.746094 185.488281 211.757812 181.671875 C 212.765625 179.878906 215.757812 173.390625 215.539062 178.617188 C 215.234375 183.160156 214.40625 188.769531 213.453125 193.386719 C 211.882812 199.355469 209.128906 205.550781 209.402344 212.054688 C 209.359375 215.492188 208.917969 218.902344 206.722656 221.613281 C 204.726562 224.203125 202.085938 226.84375 200.597656 229.949219 C 198.199219 234.957031 196.652344 241 198.050781 246.390625 C 198.40625 248.113281 200.28125 253.066406 200.90625 250.65625 C 201.347656 240.121094 202.351562 231.882812 212.695312 226.496094 C 217.808594 223.667969 224.328125 224.269531 229.285156 221.578125 C 235.980469 217.90625 239.074219 208.683594 235.855469 201.789062 Z M 197.179688 205.6875 C 191.546875 210.410156 182.921875 206.886719 182.472656 199.425781 C 181.925781 192.375 189.6875 186.441406 196.046875 190.363281 C 201.480469 193.300781 201.671875 201.726562 197.296875 205.585938 Z M 229.515625 214.089844 C 222.835938 220.972656 212.414062 214.359375 214.828125 205.367188 C 216.5625 198.304688 225.605469 195.40625 230.152344 201.410156 C 233.125 204.960938 232.695312 210.59375 229.621094 213.972656 Z M 229.515625 214.089844 " fill-opacity="1" fill-rule="nonzero"/></g></g></g></g><g clip-path="url(#b88b758b0d)"><g clip-path="url(#653f4a9094)"><g transform="matrix(1, 0, 0, 1, 79, 67)"><g clip-path="url(#f8736f6a5d)"><g clip-path="url(#9da146e392)"><g clip-path="url(#efe4c58569)"><g clip-path="url(#329acf7d39)"><g clip-path="url(#0ce019cc52)"><path fill="#000000" d="M 98.355469 169.6875 C 101.761719 169.375 103.40625 165.554688 102.171875 162.542969 C 101.101562 158.917969 99.507812 155.296875 98.230469 151.96875 C 95.070312 143.90625 91.78125 135.863281 88.566406 127.746094 C 85.5625 120.421875 82.535156 112.699219 79.585938 105.296875 C 78.984375 103.78125 78.320312 102.234375 77.6875 100.742188 C 77.351562 99.941406 77.117188 99.300781 77.1875 98.808594 C 77.25 98.242188 77.746094 97.875 78.625 97.429688 C 79.53125 96.949219 80.671875 96.398438 81.78125 95.878906 C 90 91.921875 98.144531 88.433594 106.53125 84.316406 C 108.714844 83.261719 110.945312 82.191406 113.019531 81.203125 C 114.195312 80.65625 115.578125 79.851562 115.488281 78.390625 C 115.371094 75.679688 112.808594 76.640625 111.042969 76.964844 C 107.9375 77.609375 105.203125 78.382812 102.152344 79.0625 C 94.144531 80.972656 86.519531 82.871094 78.640625 84.773438 C 77.230469 85.121094 76.074219 85.398438 74.792969 85.773438 C 73.953125 85.996094 73.125 86.453125 72.347656 85.96875 C 71.679688 85.554688 71.3125 84.78125 71.207031 84.027344 C 70.871094 82.105469 73.03125 81.390625 74.433594 80.699219 C 82.71875 76.789062 90.722656 72.800781 99.058594 68.816406 C 102.015625 67.414062 104.972656 65.980469 107.949219 64.589844 C 109.152344 63.863281 111.710938 63.417969 111.652344 61.800781 C 111.289062 59.550781 109.542969 59.117188 107.515625 59.777344 C 104.304688 60.574219 101.671875 61.308594 98.6875 62.046875 C 90.75 64.011719 81.71875 66.359375 73.800781 68.136719 C 71.472656 68.601562 68.933594 69.597656 66.523438 69.367188 C 65.566406 69.160156 64.734375 68.4375 64.757812 67.875 C 64.757812 67.398438 65.46875 67.039062 66.492188 66.476562 C 69.347656 64.910156 74.65625 62.203125 77.273438 61.007812 C 84.695312 57.628906 91.941406 53.996094 99.257812 50.511719 C 100.601562 49.871094 102.042969 49.152344 103.421875 48.453125 C 104.648438 47.777344 106.6875 47.136719 106.199219 45.550781 C 105.828125 44.53125 104.648438 43.757812 103.523438 43.78125 C 99.664062 44.011719 96.214844 45.351562 92.398438 46.191406 C 89.367188 46.90625 86.171875 47.625 83.195312 48.375 C 76.03125 50.074219 68.152344 52.191406 60.867188 53.894531 C 59.304688 54.152344 58.121094 53.5625 59.210938 52.351562 C 61.113281 50.566406 64.039062 49.074219 66.195312 47.867188 C 73.574219 44.0625 81.027344 40.484375 88.449219 36.867188 C 89.816406 36.1875 91.480469 35.398438 92.957031 34.699219 C 94.613281 33.773438 98.789062 32.386719 98.921875 30.636719 C 98.46875 28.207031 95.347656 28.691406 93.402344 29.195312 C 90.628906 29.75 87.015625 30.4375 84.171875 31.042969 C 77.625 32.417969 70.480469 33.84375 63.816406 35.210938 C 61.289062 35.726562 56.660156 36.6875 55.109375 37.0625 C 54.015625 37.425781 52.363281 37.035156 52.363281 35.648438 C 52.550781 34.113281 54.625 33.457031 55.910156 32.847656 C 58.296875 31.808594 60.695312 30.855469 63.082031 29.789062 C 70.746094 26.394531 78.449219 23.136719 86.125 19.640625 C 87.378906 19.035156 88.8125 18.65625 89.796875 17.644531 C 90.722656 16.738281 90.457031 15.191406 89.472656 14.425781 C 88.738281 13.828125 87.8125 13.71875 86.699219 13.746094 C 82.566406 13.90625 77.886719 14.640625 73.964844 15.125 C 69.285156 15.746094 64.609375 16.328125 59.808594 17.175781 C 55.847656 17.769531 52.480469 18.316406 48.351562 19.132812 C 43.988281 19.96875 41.453125 20.195312 37.726562 21.828125 C 34.902344 23.003906 33.003906 24.40625 31.660156 26.851562 C 30.417969 28.953125 30.050781 31.527344 29.976562 34.007812 C 29.796875 37.117188 30.128906 39.996094 30.6875 43.042969 C 31.746094 49.058594 32.457031 52.476562 34.1875 57.832031 C 38.054688 69 41.351562 76.441406 48.070312 87.625 C 49.699219 90.507812 51.527344 92.722656 53.203125 95.59375 C 56.660156 101.738281 59.890625 107.640625 63.367188 113.816406 C 67.910156 122.085938 79.304688 142.234375 86.582031 154.933594 C 88.835938 158.816406 90.40625 161.554688 92.199219 164.542969 C 93.148438 165.945312 93.675781 167.398438 94.949219 168.566406 C 95.84375 169.261719 97.007812 169.71875 98.164062 169.695312 Z M 98.355469 169.6875 " fill-opacity="1" fill-rule="nonzero"/></g></g></g></g></g></g></g></g></svg>